Patient4_TMGait_0pt7_01_left_10_EMG.mot
version=1
nRows=37
nColumns=33
inDegrees=no
endheader
time	1LAddLong	2LGlutMax	3LGlutMed	4LIliopsoas	5LSemiMemb	6LBicFemLong	7LRecFem	8LVastMed	9LVastLat	10LGasMed	11LTibAnt	12lTibPost	13LPeroneusLong	14LSol	15LExtDigLong	16LFlexDigLong	17RAddLong	18RGlutMax	19RGlutMed	20RIliopsoas	21RSemiMemb	22RBicFemLong	23RRecFem	24RVastMed	25RVastLat	26RGasMed	27RTibAnt	28RTibPost	29RPeroneusLong	30RSol	31RExtDigLong	32RFlexDigLong
11.852	0.053558	1.1478	0.13016	0.003967	0.045013	0.36072	-0.1622	0.029602	-0.10651	0.37521	-0.14801	-0.046844	0.055389	0.15808	-0.44983	-0.006561	0.020447	-1.3449	0.08255	0.19394	0.021362	-0.1413	0.58838	-0.10101	0.011597	-0.00061	0.12466	-0.050201	0.41214	0.27908	-0.001831	-0.001984
11.853	0.059052	1.2556	0.005646	0.020752	-0.081482	0.11017	-0.26413	0.01297	-0.2385	0.69427	-0.032043	-0.03952	-0.20599	0.14099	0.097656	-0.011139	0.016327	-1.3623	-0.23605	0.21835	0.058441	-0.14557	0.625	-0.16953	0.024109	-0.016022	0.070953	-0.088501	-0.25772	0.44128	-0.000305	-0.002136
11.854	0.06958	1.3492	-0.10529	0.026245	-0.083618	-0.19959	-0.24338	-0.002594	-0.31738	0.51773	0.23178	-0.020142	0.24841	0.18662	0.2298	0.001831	0.00824	-1.3536	-0.12436	0.12894	0.075989	-0.16251	0.52429	-0.11795	0.019989	0.007782	-0.12451	-0.18341	-0.2449	0.51498	-0.002136	0.00412
11.855	0.063171	1.2491	-0.032806	0.010376	-0.047302	-0.23117	-0.19623	0.009155	-0.27786	0.18601	0.3743	-0.016632	1.368	0.24658	-0.031433	0.006866	-0.041809	-1.2959	0.34759	-0.032501	0.092316	-0.12589	0.43228	-0.11383	0.037689	0.004425	-0.15732	-0.060883	-0.31235	0.46326	-0.001984	0.001068
11.856	0.048981	1.2541	0.17212	0.015564	0.019836	-0.13641	-0.19959	0.019073	-0.17029	-0.058746	0.26367	-0.001221	1.1234	0.23117	0.22598	-0.001221	-0.006714	-1.3434	-0.080719	-0.20599	0.10559	-0.16739	0.37537	-0.12085	0.032043	-0.028381	-0.060272	-0.41519	-1.6162	-0.18387	-0.003052	-0.009766
11.857	0.029144	1.4273	0.046387	0.004272	0.040131	-0.33829	-0.21423	0.020752	-0.062714	-0.26047	-0.076447	0	0.13641	0.20157	0.050812	-0.013885	0.003662	-1.3147	-0.55725	-0.23315	0.088654	-0.23575	0.28503	-0.10361	0.053864	-0.025635	0.065308	0.29877	-0.37369	-0.85983	-0.001678	-0.021057
11.858	0.027771	1.5634	-0.1268	0.016479	0.007477	-0.87677	-0.19455	0.00824	0.12543	-0.6665	-0.40512	0.002136	-0.45288	0.2684	-0.018158	0.010223	-0.018158	-1.3641	-0.84457	-0.14603	0.070801	-0.27985	0.41306	-0.17151	0.00885	-0.040894	0.13962	0.38711	1.1531	-1.0637	0.001678	-0.030975
11.859	0.034027	1.6193	-0.19867	0.022278	-0.031281	-0.13596	-0.13062	-0.006104	0.34546	-0.89127	-0.11704	0.012054	-1.0271	-0.11841	-0.30579	-0.015564	-0.007324	-1.3197	-1.3132	-0.063171	0.052795	-0.26596	0.53192	-0.19287	-0.02655	-0.010376	0.22949	-0.040894	1.3866	-0.36545	-0.001373	-0.028839
11.86	0.010376	1.6081	-0.1358	0.00473	-0.0383	0.024719	0.037384	-0.011902	0.49713	-0.36743	-0.097198	0.007019	-0.94742	-0.42389	-0.34561	-0.027924	0.016174	-1.218	-0.95047	0.030212	0.049896	-0.17624	0.61325	-0.094452	-0.020752	0.018616	0.21851	-0.71747	0.73898	0.30685	-0.001221	-0.023651
11.861	0.023499	1.469	-0.047455	0.022736	-0.034943	0.097656	0.10468	-0.016327	0.29068	0.014801	-0.062866	0.005493	-0.19592	-0.68848	-0.24429	-0.039368	0.02533	-1.0999	-0.87708	0.057068	0.046844	-0.2446	0.73654	-0.028076	-0.024719	0.06134	-0.007935	0.33997	0.48569	0.26276	0.000916	-0.012512
11.862	0.029297	1.2335	-0.036163	0.0177	-0.060425	0.55893	0.04715	-0.023193	-0.2359	0.44693	-0.10117	0.012207	0.38589	-0.66635	-0.1445	-0.061493	-0.003662	-1.0481	-0.80582	0.031433	0.037689	-0.28839	0.6247	0.071106	-0.011444	0.08255	-0.13825	0.38391	0.15518	0.43243	0.005188	-0.002747
11.863	0.020752	0.90836	-0.038452	0.018616	-0.011139	0.89111	-0.025635	-0.003357	-0.34424	0.77942	-0.044861	0.019836	-0.011444	-0.35797	0.27145	-0.052185	-0.025482	-1.0008	-0.76157	0.052643	0.036621	-0.26413	0.62531	0.054474	0.003967	0.074463	-0.14023	0.19623	-0.63644	0.33386	0.001221	0.008087
11.864	0.013428	0.60135	-0.18799	0.006256	-0.016022	1.1719	-0.018005	0.012512	-0.14099	1.0355	-0.010529	0.013733	0.044708	-0.20355	0.48813	-0.038605	-0.024109	-0.88455	-0.69199	0.010834	0.029907	-0.27161	0.6778	-0.026245	0.006104	0.057373	-0.14694	-0.010681	-1.9203	0.28534	-0.002594	0.005951
11.865	0.011597	0.43335	-0.26901	0.001526	-0.015869	1.0632	-0.090942	0.024719	0.067596	0.63248	0.016785	0.015259	0.41824	-0.47791	0.37567	-0.016174	-0.040588	-0.75653	-0.57236	0.000153	0.031586	-0.24597	0.75592	-0.10559	-0.03479	0.031738	-0.14603	-0.11688	-0.69214	-0.11276	0	0.003357
11.866	0.003967	0.23666	-0.24323	-0.007935	-0.015259	1.0944	-0.10574	0.031586	0.24292	0.42084	0.024719	0.007324	0.096893	-0.63217	0.36713	-0.014801	-0.080414	-0.58151	-0.38986	0.003357	0.043488	-0.20233	0.7132	-0.13443	-0.037537	-0.007629	-0.21118	-0.068817	0.392	-0.6929	-0.005493	-0.003357
11.867	-0.005646	0.011749	-0.14267	0.004272	-0.022125	0.94864	-0.10971	0.036163	0.34744	0.31509	0.047302	-0.008545	-0.10925	-0.49408	0.11414	-0.010376	-0.077209	-0.43961	-0.39642	0.008545	0.048828	-0.20416	0.63355	-0.15915	-0.019379	-0.084686	-0.16525	-0.074005	-0.28244	-1.3231	-0.003662	-0.020447
11.868	-0.018616	-0.11704	-0.10452	0.015411	-0.036774	0.42374	-0.059357	0.023041	0.39719	-0.054169	0.009308	0.014954	-0.15106	-0.11658	-0.16327	-0.000305	-0.10788	-0.36652	-0.40863	0.003052	0.041809	-0.20569	0.60974	-0.26108	-0.021973	-0.085907	-0.055389	-0.16922	-0.63736	-0.73975	-0.00351	-0.027924
11.869	-0.029144	-0.27557	0.020447	-0.003662	-0.05188	-0.96176	0.011139	0.011444	0.31509	-0.57892	-0.038757	0.02594	-0.016479	-0.033112	-0.044098	-0.009155	-0.11185	-0.27206	0.29419	-0.095215	0.038757	-0.21561	0.56	-0.35797	-0.031738	-0.065613	-0.049744	-0.44418	-0.21729	0.61798	-0.000305	-0.014343
11.87	-0.033264	-0.41245	-0.020447	-0.010071	-0.076752	-0.56366	0.002289	0.015717	0.22186	-0.85297	-0.0914	0.036316	-0.15442	-0.008392	-0.066223	0.008545	-0.072632	-0.22873	-0.12405	-0.019684	0.02594	-0.2272	0.34561	-0.37918	-0.059814	-0.069885	-0.033417	-0.089569	0.18829	1.2001	-0.002899	-0.002441
11.871	-0.039215	-0.44708	-0.20096	0	-0.11108	-0.042114	-0.084686	0.020599	0.12695	-0.74768	-0.067902	0.023041	-0.15121	-0.12802	-0.13886	0.003052	-0.024567	-0.16281	-0.83115	0.077209	0.027161	-0.22125	0.13367	-0.34943	-0.079803	-0.041046	-0.093689	0.29511	0.84244	0.73517	0	0.016632
11.872	-0.042114	-0.46493	-0.066376	0.010986	-0.159	0.08316	-0.1384	0.019226	0.1471	-0.4306	0.031586	0.00351	0.13458	-0.03479	-0.049896	-0.000763	0.019531	0.019989	-0.55618	0.10773	0.027008	-0.21164	0.044403	-0.28168	-0.075989	-0.005493	-0.095825	0.27863	0.69733	0.76416	0.001068	0.006714
11.873	-0.028992	-0.60959	0.15686	-0.001221	-0.18082	0.005035	-0.2066	0.022125	0.34821	-0.10742	0.13412	0.016022	0.078735	0.031281	0.077667	-0.010071	0.067291	0.17014	-0.53574	0.13153	0.022888	-0.22003	0.014343	-0.23926	-0.083466	0.018005	-0.059814	0.10361	0.46692	1.049	-0.002289	0.00824
11.874	-0.048065	-0.75684	0.070038	0.010681	-0.19577	0.11368	-0.19898	0.019226	0.46555	0.095978	0.31006	0.009155	0.25467	0.19852	0.10681	-0.005341	0.074768	0.29388	-0.89813	0.13672	0.005341	-0.21301	0.18601	-0.25986	-0.082092	0.011597	-0.043793	-0.090332	0.35019	0.75836	-0.000305	0.004425
11.875	-0.051575	-0.83023	0.059204	0.007629	-0.23926	-0.08316	-0.2182	0.023346	0.37369	0.09079	0.24475	0.006256	-0.059204	0.271	0.60745	0.003204	0.095062	0.47669	-1.051	0.054321	-0.011749	-0.21057	0.36362	-0.24872	-0.1004	0.007172	-0.034332	-0.027771	0.20844	0.23117	-0.005493	-0.003815
11.876	-0.073242	-0.94315	0.027924	0.003662	-0.26215	-0.006561	-0.20706	0.011292	0.18188	-0.011139	0.13809	0.00885	0.023041	0.27405	0.59723	0.005035	0.16525	0.56381	-1.0454	-0.003815	-0.017853	-0.18662	0.43686	-0.31479	-0.10773	-0.022583	0.010681	0.013123	0.11658	-0.48584	-0.001831	-0.022888
11.877	-0.077972	-0.94467	-0.076294	0.000763	-0.2919	-0.33035	-0.22095	0.010071	0.1564	0.1265	0.17716	-0.00412	-0.006104	0.21744	0.56869	-0.013428	0.18585	0.76401	-0.98496	-0.038605	-0.052185	-0.20554	0.52734	-0.35523	-0.087891	-0.061951	0.0914	0.028839	0.019226	-0.72815	0.00351	-0.017853
11.878	-0.072327	-0.9996	-0.090942	0.00824	-0.4158	-0.81894	-0.19943	0.007629	0.079651	0.32272	0.26062	0.001221	-0.1683	0.17639	-0.25391	0.001984	0.14587	0.98953	-0.91431	-0.027008	-0.075378	-0.21149	0.42236	-0.33676	-0.055389	-0.040894	-0.010529	0.027924	0.15045	-0.42755	-0.000458	-0.012512
11.879	-0.029449	-0.94162	-0.10941	0.019989	-0.2507	-1.1261	-0.14069	0	-0.080261	0.18112	0.046539	-0.000305	1.5204	0.20325	-0.72022	-0.001068	0.17654	1.2071	-0.77286	0.06012	-0.086365	-0.19913	0.33752	-0.40085	-0.059814	-0.014343	-0.086823	0.010223	0.11978	-0.21957	-0.004272	-0.013733
11.88	0.021362	-0.80658	-0.14511	0.007782	0.10025	-1.0521	-0.12283	-0.004272	-0.064545	0.19318	-0.066833	0.00412	-0.18082	0.15198	-0.8725	-0.00946	0.21927	1.2862	-0.94101	0.086823	-0.103	-0.18631	0.37827	-0.37079	-0.081787	-0.002747	-0.057983	0.022888	-0.10849	-0.45166	0	-0.010834
11.881	0.04715	-0.63217	-0.092621	0.004272	0.36484	-0.67734	-0.12192	0.030365	0.07843	-0.047607	-0.042877	0.007935	-0.53131	0.10056	-0.76523	0.004578	0.14084	1.4708	-1.0162	0.07431	-0.10696	-0.086823	0.34622	-0.29419	-0.077667	0.001526	0.085907	0.001831	-0.058594	-0.41687	-0.00412	-0.000763
11.882	0.025177	-0.42893	-0.074768	-0.004578	0.29434	-0.27985	-0.16083	0.042419	0.26276	-0.053101	-0.12054	0.009308	0.55985	0.13031	-0.66437	-0.003357	0.022736	1.6661	-0.88638	0.028076	-0.098572	-0.032043	0.2739	-0.19699	-0.08316	-0.003052	0.14969	-0.028992	0.30899	-0.54688	0.001831	-0.011749
11.883	-0.012817	-0.35049	-0.051727	-0.003815	0.20752	0.1268	-0.19089	0.032501	0.3418	0.2179	-0.21301	0.012207	0.4921	0.1593	-0.28946	0.001373	-0.10101	1.9164	-0.90851	0.05127	-0.065613	-0.032043	0.18555	-0.20493	-0.091705	-0.009766	0.17975	-0.066376	0.20004	-0.28641	0.002899	-0.012817
11.884	0.018005	-0.336	0.12024	0.008698	0.10574	0.29816	-0.19104	-0.023041	0.37445	0.82047	-0.24216	-0.003662	-0.16449	-0.12695	0.11749	0.004883	-0.14175	2.1005	-0.90912	0.086975	-0.009308	-0.01297	0.16373	-0.16373	-0.09552	-0.011292	0.19638	-0.088196	0.20371	-0.3479	0.000153	-0.011902
11.885	0.041656	-0.32623	0.085297	0.010834	0.067139	0.42969	-0.35492	-0.032349	0.4335	0.84412	-0.10666	-0.005951	-0.71396	-0.40741	0.14648	-0.011902	-0.11688	2.2539	-0.90866	0.17487	0.055847	-0.011902	-0.021973	-0.159	-0.050812	-0.008545	0.30792	-0.008545	0.20416	-0.38132	-0.005341	-0.007629
11.886	0.036621	-0.26245	0.033569	-0.002441	0.052185	0.71716	-0.56427	-0.050354	0.31448	0.85815	-0.10635	0.002289	-0.2301	-0.69244	-0.011902	0.007324	-0.090637	2.2893	-1.075	0.1831	0.070953	0.025482	-0.056915	-0.13565	-0.042114	0.005798	0.25009	-0.021973	0.23514	-0.52933	-0.001068	-0.001678
11.887	0.036011	-0.084076	0.05188	-0.003662	0.020905	0.88654	-0.53421	-0.058136	0.19287	0.62164	-0.067596	0.00946	-0.37354	-0.6189	0.001068	0.028687	-0.066071	2.4777	-0.91583	0.04837	0.066681	0.056763	-0.14358	-0.11856	-0.030975	0.007629	0.15396	-0.032654	0.15045	-0.39063	0.002136	-0.002441
11.888	0.022125	-0.023956	0.12253	0.003204	-0.007172	1.1684	-0.50522	-0.052948	-0.059662	0.15488	-0.012512	0.014954	0.21957	-0.46295	0.14404	0.018311	-0.016632	2.5002	-0.90408	-0.10391	0.071106	0.062866	-0.12695	-0.11597	-0.014191	0.003357	-0.23163	-0.031586	-0.010223	-0.20264	0.001373	-0.010071
